<?xml version="1.0" encoding="utf-8"?>
<!-- Generator: Adobe Illustrator 22.0.1, SVG Export Plug-In . SVG Version: 6.00 Build 0)  -->
<svg version="1.1" id="Layer_1" xmlns="http://www.w3.org/2000/svg" xmlns:xlink="http://www.w3.org/1999/xlink" x="0px" y="0px"
	 viewBox="0 0 84.4 100" style="enable-background:new 0 0 84.4 100;" xml:space="preserve">
<style type="text/css">
	.st0{fill:#FF0000;}
</style>
<g>
	<g>
		<polygon class="st0" points="78.5,13 76.6,16.5 78.5,19.9 69,19.9 69,13 		"/>
	</g>
	<g>
		<path d="M73.8,88.9H13.1c-1.2,0-2.2,1-2.2,2.2v6.7c0,1.2,1,2.2,2.2,2.2h60.6c1.2,0,2.2-1,2.2-2.2v-6.7
			C75.9,89.9,74.9,88.9,73.8,88.9z"/>
		<path d="M16.3,76.8v6.7c0,1.2,1,2.2,2.2,2.2h49.9c1.2,0,2.2-1,2.2-2.2v-6.7c0-1.2-1-2.2-2.2-2.2H18.5
			C17.3,74.7,16.3,75.6,16.3,76.8z"/>
		<path d="M21.6,64.7v5.4c0,1.2,1,2.2,2.2,2.2h7c1.2,0,2.2-1,2.2-2.2v-7.5V42.3c0-1.2-1-2.2-2.2-2.2H24H2.2c-1.2,0-2.2,1-2.2,2.2
			v18.1c0,1.2,1,2.2,2.2,2.2h17.3C20.6,62.5,21.6,63.5,21.6,64.7z M6,55c-2,0-3.6-1.6-3.6-3.6s1.6-3.6,3.6-3.6s3.6,1.6,3.6,3.6
			S8,55,6,55z M14.5,51.4c0-2,1.6-3.6,3.6-3.6s3.6,1.6,3.6,3.6S20,55,18,55S14.5,53.4,14.5,51.4z"/>
		<path d="M81.9,28.3H60.1h-6.7c-1.2,0-2.2,1-2.2,2.2v20.2v19.4c0,1.2,1,2.2,2.2,2.2h7c1.2,0,2.2-1,2.2-2.2V52.8
			c0-1.2,1-2.2,2.2-2.2h17.3c1.2,0,2.2-1,2.2-2.2V30.5C84.1,29.3,83.1,28.3,81.9,28.3z M66.1,43.1c-2,0-3.6-1.6-3.6-3.6
			s1.6-3.6,3.6-3.6s3.6,1.6,3.6,3.6S68,43.1,66.1,43.1z M78,43.1c-2,0-3.6-1.6-3.6-3.6S76.1,36,78,36s3.6,1.6,3.6,3.6
			S80,43.1,78,43.1z"/>
		<path d="M38.3,72h7c1.2,0,2.2-1,2.2-2.2V24.5c0-1.2,1-2.2,2.2-2.2h17.3c1.2,0,2.2-1,2.2-2.2V2.2C69,1,68,0,66.8,0H45h-6.7
			c-1.2,0-2.2,1-2.2,2.2v20.2v47.4C36.1,71,37.1,72,38.3,72z M63,7.7c2,0,3.6,1.6,3.6,3.6s-1.6,3.6-3.6,3.6s-3.6-1.6-3.6-3.6
			S61,7.7,63,7.7z M51,7.7c2,0,3.6,1.6,3.6,3.6S53,14.8,51,14.8s-3.6-1.6-3.6-3.6S49,7.7,51,7.7z"/>
	</g>
</g>
</svg>
