<?xml version="1.0" encoding="utf-8"?>
<!-- Generator: Adobe Illustrator 22.0.1, SVG Export Plug-In . SVG Version: 6.00 Build 0)  -->
<svg version="1.1" id="Layer_1" xmlns="http://www.w3.org/2000/svg" xmlns:xlink="http://www.w3.org/1999/xlink" x="0px" y="0px"
	 viewBox="0 0 100 100" style="enable-background:new 0 0 100 100;" xml:space="preserve">
<style type="text/css">
	.st0{fill:#FF0000;}
</style>
<g>
	<g>
		<polygon class="st0" points="88.6,93.1 78.1,87.2 67.6,93.1 67.6,64.2 88.6,64.2 		"/>
	</g>
	<path d="M6.6,100h21.3c3.6,0,6.6-2.9,6.6-6.6V74.9c0-3.6,2.9-6.6,6.6-6.6h52.5c3.6,0,6.6-2.9,6.6-6.6V6.6c0-3.6-2.9-6.6-6.6-6.6H27
		H6.6C2.9,0,0,2.9,0,6.6v61.8v25.1C0,97.1,2.9,100,6.6,100z M81.6,23.6c6,0,10.8,4.9,10.8,10.9s-4.8,10.9-10.8,10.9
		s-10.8-4.9-10.8-10.9S75.6,23.6,81.6,23.6z M45.2,23.6c6,0,10.8,4.9,10.8,10.9s-4.8,10.9-10.8,10.9s-10.8-4.9-10.8-10.9
		S39.3,23.6,45.2,23.6z"/>
</g>
</svg>
